  0
SECTION
  2
HEADER
  9
$ACADVER
  1
AC1009
  9
$DWGCODEPAGE
  3
undefined
  9
$INSBASE
 10
0.0
 20
0.0
 30
0.0
  9
$EXTMIN
 10
1.000000000000000E+20
 20
1.000000000000000E+20
 30
1.000000000000000E+20
  9
$EXTMAX
 10
-1.000000000000000E+20
 20
-1.000000000000000E+20
 30
-1.000000000000000E+20
  9
$LIMMIN
 10
0.0
 20
0.0
  9
$LIMMAX
 10
12.0
 20
9.0
  9
$ORTHOMODE
 70
     0
  9
$REGENMODE
 70
     1
  9
$FILLMODE
 70
     1
  9
$QTEXTMODE
 70
     0
  9
$MIRRTEXT
 70
     1
  9
$DRAGMODE
 70
     2
  9
$LTSCALE
 40
1.0
  9
$OSMODE
 70
    37
  9
$ATTMODE
 70
     1
  9
$TEXTSIZE
 40
0.2
  9
$TRACEWID
 40
0.05
  9
$TEXTSTYLE
  7
STANDARD
  9
$CLAYER
  8
0
  9
$CELTYPE
  6
BYLAYER
  9
$CECOLOR
 62
   256
  9
$DIMSCALE
 40
1.0
  9
$DIMASZ
 40
0.18
  9
$DIMEXO
 40
0.0625
  9
$DIMDLI
 40
0.38
  9
$DIMRND
 40
0.0
  9
$DIMDLE
 40
0.0
  9
$DIMEXE
 40
0.18
  9
$DIMTP
 40
0.0
  9
$DIMTM
 40
0.0
  9
$DIMTXT
 40
0.18
  9
$DIMCEN
 40
0.09
  9
$DIMTSZ
 40
0.0
  9
$DIMTOL
 70
     0
  9
$DIMLIM
 70
     0
  9
$DIMTIH
 70
     1
  9
$DIMTOH
 70
     1
  9
$DIMSE1
 70
     0
  9
$DIMSE2
 70
     0
  9
$DIMTAD
 70
     0
  9
$DIMZIN
 70
     0
  9
$DIMBLK
  1

  9
$DIMASO
 70
     1
  9
$DIMSHO
 70
     1
  9
$DIMPOST
  1

  9
$DIMAPOST
  1

  9
$DIMALT
 70
     0
  9
$DIMALTD
 70
     2
  9
$DIMALTF
 40
25.4
  9
$DIMLFAC
 40
1.0
  9
$DIMTOFL
 70
     0
  9
$DIMTVP
 40
0.0
  9
$DIMTIX
 70
     0
  9
$DIMSOXD
 70
     0
  9
$DIMSAH
 70
     0
  9
$DIMBLK1
  1

  9
$DIMBLK2
  1

  9
$DIMSTYLE
  2
STANDARD
  9
$DIMCLRD
 70
     0
  9
$DIMCLRE
 70
     0
  9
$DIMCLRT
 70
     0
  9
$DIMTFAC
 40
1.0
  9
$DIMGAP
 40
0.09
  9
$LUNITS
 70
     2
  9
$LUPREC
 70
     4
  9
$SKETCHINC
 40
0.1
  9
$FILLETRAD
 40
0.5
  9
$AUNITS
 70
     0
  9
$AUPREC
 70
     0
  9
$MENU
  1
.
  9
$ELEVATION
 40
0.0
  9
$PELEVATION
 40
0.0
  9
$THICKNESS
 40
0.0
  9
$LIMCHECK
 70
     0
  9
$CHAMFERA
 40
0.0
  9
$CHAMFERB
 40
0.0
  9
$SKPOLY
 70
     0
  9
$TDCREATE
 40
2457185.861006944
  9
$TDUPDATE
 40
2457185.861006944
  9
$TDINDWG
 40
0.0000000116
  9
$TDUSRTIMER
 40
0.0000000116
  9
$USRTIMER
 70
     1
  9
$ANGBASE
 50
0.0
  9
$ANGDIR
 70
     0
  9
$PDMODE
 70
     0
  9
$PDSIZE
 40
0.0
  9
$PLINEWID
 40
0.0
  9
$COORDS
 70
     1
  9
$SPLFRAME
 70
     0
  9
$SPLINETYPE
 70
     6
  9
$SPLINESEGS
 70
     8
  9
$ATTDIA
 70
     0
  9
$ATTREQ
 70
     1
  9
$HANDLING
 70
     1
  9
$HANDSEED
  5
100000FB
  9
$SURFTAB1
 70
     6
  9
$SURFTAB2
 70
     6
  9
$SURFTYPE
 70
     6
  9
$SURFU
 70
     6
  9
$SURFV
 70
     6
  9
$UCSNAME
  2

  9
$UCSORG
 10
0.0
 20
0.0
 30
0.0
  9
$UCSXDIR
 10
1.0
 20
0.0
 30
0.0
  9
$UCSYDIR
 10
0.0
 20
1.0
 30
0.0
  9
$PUCSNAME
  2

  9
$PUCSORG
 10
0.0
 20
0.0
 30
0.0
  9
$PUCSXDIR
 10
1.0
 20
0.0
 30
0.0
  9
$PUCSYDIR
 10
0.0
 20
1.0
 30
0.0
  9
$USERI1
 70
     0
  9
$USERI2
 70
     0
  9
$USERI3
 70
     0
  9
$USERI4
 70
     0
  9
$USERI5
 70
     0
  9
$USERR1
 40
0.0
  9
$USERR2
 40
0.0
  9
$USERR3
 40
0.0
  9
$USERR4
 40
0.0
  9
$USERR5
 40
0.0
  9
$WORLDVIEW
 70
     1
  9
$SHADEDGE
 70
     3
  9
$SHADEDIF
 70
    70
  9
$TILEMODE
 70
     1
  9
$MAXACTVP
 70
    64
  9
$PLIMCHECK
 70
     0
  9
$PEXTMIN
 10
1.000000000000000E+20
 20
1.000000000000000E+20
 30
1.000000000000000E+20
  9
$PEXTMAX
 10
-1.000000000000000E+20
 20
-1.000000000000000E+20
 30
-1.000000000000000E+20
  9
$PLIMMIN
 10
0.0
 20
0.0
  9
$PLIMMAX
 10
12.0
 20
9.0
  9
$UNITMODE
 70
     0
  9
$VISRETAIN
 70
     1
  9
$PLINEGEN
 70
     0
  9
$PSLTSCALE
 70
     1
  0
ENDSEC
  0
SECTION
  2
TABLES
  0
TABLE
  2
VPORT
 70
     1
  0
VPORT
  2
*ACTIVE
 70
     0
 10
0.0
 20
0.0
 11
1.0
 21
1.0
 12
10.42990654205607
 22
4.5
 13
0.0
 23
0.0
 14
0.5
 24
0.5
 15
0.5
 25
0.5
 16
0.0
 26
0.0
 36
1.0
 17
0.0
 27
0.0
 37
0.0
 40
9.0
 41
1.972972972850329
 42
50.0
 43
0.0
 44
0.0
 50
0.0
 51
0.0
 71
     0
 72
   100
 73
     1
 74
     3
 75
     0
 76
     0
 77
     0
 78
     0
  0
ENDTAB
  0
TABLE
  2
LTYPE
 70
     5
  0
LTYPE
  2
CONTINUOUS
 70
     0
  3
Solid line
 72
    65
 73
     0
 40
0.0
  0
LTYPE
  2
HIDDEN
 70
     0
  3
Hidden line ____ ____ ____ ____ 
 72
    83
 73
     2
 40
0.125
 49
0.25
 49
-0.125
  0
LTYPE
  2
PHANTOM
 70
     0
  3
Phantom line ______  __  __  ______  __  __
 72
    83
 73
     6
 40
0.5
 49
0.625
 49
-0.125
 49
0.125
 49
-0.125
 49
0.125
 49
-0.125
  0
LTYPE
  2
CENTER
 70
     0
  3
Center line ____ _ ____ _ ____ _
 72
    83
 73
     4
 40
0.5
 49
0.625
 49
-0.125
 49
0.125
 49
-0.125
  0
LTYPE
  2
DASHED
 70
     0
  3
Dashed line __ __ __ __
 72
    83
 73
     2
 40
0.25
 49
0.5
 49
-0.25
  0
ENDTAB
  0
TABLE
  2
LAYER
 70
     5
  0
LAYER
  2
0
 70
     0
 62
     7
  6
CONTINUOUS
  0
LAYER
  2
HIDDEN
 70
     0
 62
    -7
  6
HIDDEN
  0
LAYER
  2
VISIBLE
 70
     0
 62
     7
  6
CONTINUOUS
  0
LAYER
  2
TANGENT_LINES
 70
     0
 62
     7
  6
CONTINUOUS
  0
LAYER
  2
INVISIBLE_LINES
 70
     0
 62
    -7
  6
CONTINUOUS
  0
ENDTAB
  0
TABLE
  2
STYLE
 70
     2
  0
STYLE
  2
STANDARD
 70
     0
 40
0.0
 41
1.0
 50
0.0
 71
     0
 42
0.2
  3
txt
  4

  0
STYLE
  2
ODATTFSTYLE
 70
     0
 40
0.0
 41
1.0
 50
0.0
 71
     0
 42
0.2
  3
Verdana.ttf
  4

  0
ENDTAB
  0
TABLE
  2
VIEW
 70
     0
  0
ENDTAB
  0
TABLE
  2
UCS
 70
     0
  0
ENDTAB
  0
TABLE
  2
APPID
 70
     1
  0
APPID
  2
ACAD
 70
     0
  0
ENDTAB
  0
TABLE
  2
DIMSTYLE
 70
     1
  0
DIMSTYLE
  2
STANDARD
 70
     0
  3

  4

  5

  6

  7

 40
1.0
 41
0.18
 42
0.0625
 43
0.38
 44
0.18
 45
0.0
 46
0.0
 47
0.0
 48
0.0
140
0.18
141
0.09
142
0.0
143
25.4
144
1.0
145
0.0
146
1.0
147
0.09
 71
     0
 72
     0
 73
     1
 74
     1
 75
     0
 76
     0
 77
     0
 78
     0
170
     0
171
     2
172
     0
173
     0
174
     0
175
     0
176
     0
177
     0
178
     0
  0
ENDTAB
  0
ENDSEC
  0
SECTION
  2
BLOCKS
  0
BLOCK
  8
0
  2
$MODEL_SPACE
 70
     0
 10
0.0
 20
0.0
 30
0.0
  3
$MODEL_SPACE
  1

  0
ENDBLK
  5
21
  8
0
  0
BLOCK
 67
     1
  8
0
  2
$PAPER_SPACE
 70
     0
 10
0.0
 20
0.0
 30
0.0
  3
$PAPER_SPACE
  1

  0
ENDBLK
  5
1D
 67
     1
  8
0
  0
ENDSEC
  0
SECTION
  2
ENTITIES
  0
LINE
  5
F4733
  8
VISIBLE
 10
-1.368845506669499
 20
0.0500000000000009
 30
0.0
 11
-1.438845506669499
 21
0.5000000000000001
 31
0.0
  0
LINE
  5
F4734
  8
VISIBLE
 10
-1.088845506669499
 20
0.0500000000000009
 30
0.0
 11
-1.158845506669499
 21
0.5
 31
0.0
  0
LINE
  5
F4735
  8
VISIBLE
 10
-0.8088455066694987
 20
0.0500000000000009
 30
0.0
 11
-0.8788455066694987
 21
0.5
 31
0.0
  0
LINE
  5
F4736
  8
VISIBLE
 10
-0.5288455066694988
 20
0.0500000000000009
 30
0.0
 11
-0.5988455066694989
 21
0.5
 31
0.0
  0
LINE
  5
F4737
  8
VISIBLE
 10
-0.2488455066694987
 20
0.0500000000000009
 30
0.0
 11
-0.3188455066694988
 21
0.5
 31
0.0
  0
LINE
  5
F4738
  8
VISIBLE
 10
-1.648845506669498
 20
0.0500000000000008
 30
0.0
 11
-1.844738747859119
 21
0.0804722819628305
 31
0.0
  0
LINE
  5
F4739
  8
VISIBLE
 10
-0.6688455066694985
 20
0.0500000000000007
 30
0.0
 11
-0.598845506669499
 21
0.5
 31
0.0
  0
LINE
  5
F473A
  8
VISIBLE
 10
-0.9488455066694985
 20
0.0500000000000007
 30
0.0
 11
-0.878845506669499
 21
0.5
 31
0.0
  0
LINE
  5
F473B
  8
VISIBLE
 10
-1.228845506669499
 20
0.0500000000000007
 30
0.0
 11
-1.158845506669499
 21
0.5
 31
0.0
  0
LINE
  5
F473C
  8
VISIBLE
 10
-1.508845506669498
 20
0.0500000000000007
 30
0.0
 11
-1.438845506669499
 21
0.5000000000000001
 31
0.0
  0
LINE
  5
F473D
  8
VISIBLE
 10
-0.2688455066694986
 20
-0.0000000000000001
 30
0.0
 11
-0.3188455066694987
 21
0.2720422390115074
 31
0.0
  0
LINE
  5
F473E
  8
VISIBLE
 10
-0.8288455066694985
 20
-0.0000000000000001
 30
0.0
 11
-0.8788455066694987
 21
0.2720422390115074
 31
0.0
  0
LINE
  5
F473F
  8
VISIBLE
 10
-0.5488455066694986
 20
-0.0000000000000001
 30
0.0
 11
-0.5988455066694987
 21
0.2720422390115074
 31
0.0
  0
LINE
  5
F4740
  8
VISIBLE
 10
-1.388845506669499
 20
-0.0000000000000001
 30
0.0
 11
-1.438845506669499
 21
0.2720422390115074
 31
0.0
  0
LINE
  5
F4741
  8
VISIBLE
 10
-1.108845506669499
 20
-0.0000000000000001
 30
0.0
 11
-1.158845506669499
 21
0.2720422390115074
 31
0.0
  0
LINE
  5
F4742
  8
VISIBLE
 10
-0.3888455066694984
 20
0.0500000000000007
 30
0.0
 11
-0.318845506669499
 21
0.5
 31
0.0
  0
LINE
  5
F4743
  8
VISIBLE
 10
-1.844738747859119
 20
0.0804722819628305
 30
0.0
 11
-1.844738747859119
 21
-0.0767090667669815
 31
0.0
  0
LINE
  5
F4744
  8
VISIBLE
 10
-0.5088455066694986
 20
-0.0000000000000002
 30
0.0
 11
-0.4588455066694987
 21
0.2720422390115073
 31
0.0
  0
LINE
  5
F4745
  8
VISIBLE
 10
-0.7888455066694986
 20
-0.0000000000000002
 30
0.0
 11
-0.7388455066694987
 21
0.2720422390115073
 31
0.0
  0
LINE
  5
F4746
  8
VISIBLE
 10
-1.068845506669499
 20
-0.0000000000000002
 30
0.0
 11
-1.018845506669499
 21
0.2720422390115073
 31
0.0
  0
LINE
  5
F4747
  8
VISIBLE
 10
-1.348845506669498
 20
-0.0000000000000002
 30
0.0
 11
-1.298845506669499
 21
0.2720422390115073
 31
0.0
  0
LINE
  5
F4748
  8
VISIBLE
 10
-1.628845506669499
 20
-0.0000000000000002
 30
0.0
 11
-1.578845506669499
 21
0.2720422390115073
 31
0.0
  0
LINE
  5
F4749
  8
VISIBLE
 10
-1.628845506669499
 20
0.0000000000000002
 30
0.0
 11
-1.578845506669499
 21
-0.2720422390115073
 31
0.0
  0
LINE
  5
F474A
  8
VISIBLE
 10
-1.068845506669499
 20
0.0000000000000002
 30
0.0
 11
-1.018845506669499
 21
-0.2720422390115073
 31
0.0
  0
LINE
  5
F474B
  8
VISIBLE
 10
-1.348845506669498
 20
0.0000000000000002
 30
0.0
 11
-1.298845506669499
 21
-0.2720422390115073
 31
0.0
  0
LINE
  5
F474C
  8
VISIBLE
 10
-0.5088455066694986
 20
0.0000000000000002
 30
0.0
 11
-0.4588455066694987
 21
-0.2720422390115073
 31
0.0
  0
LINE
  5
F474D
  8
VISIBLE
 10
-0.7888455066694986
 20
0.0000000000000002
 30
0.0
 11
-0.7388455066694987
 21
-0.2720422390115073
 31
0.0
  0
LINE
  5
F474E
  8
VISIBLE
 10
-0.4088455066694986
 20
-0.0000000000000001
 30
0.0
 11
-0.4588455066694987
 21
0.2720422390115074
 31
0.0
  0
LINE
  5
F474F
  8
VISIBLE
 10
-0.9688455066694985
 20
-0.0000000000000001
 30
0.0
 11
-1.018845506669499
 21
0.2720422390115074
 31
0.0
  0
LINE
  5
F4750
  8
VISIBLE
 10
-0.6888455066694985
 20
-0.0000000000000001
 30
0.0
 11
-0.7388455066694987
 21
0.2720422390115074
 31
0.0
  0
LINE
  5
F4751
  8
VISIBLE
 10
-1.248845506669499
 20
-0.0000000000000001
 30
0.0
 11
-1.298845506669499
 21
0.2720422390115074
 31
0.0
  0
LINE
  5
F4752
  8
VISIBLE
 10
-1.528845506669499
 20
-0.0000000000000001
 30
0.0
 11
-1.578845506669499
 21
0.2720422390115074
 31
0.0
  0
LINE
  5
F4753
  8
VISIBLE
 10
-0.6688455066694989
 20
-0.0500000000000009
 30
0.0
 11
-0.7388455066694989
 21
-0.5
 31
0.0
  0
LINE
  5
F4754
  8
VISIBLE
 10
-0.3888455066694987
 20
-0.0500000000000009
 30
0.0
 11
-0.4588455066694988
 21
-0.5
 31
0.0
  0
LINE
  5
F4755
  8
VISIBLE
 10
-1.228845506669499
 20
-0.0500000000000009
 30
0.0
 11
-1.298845506669499
 21
-0.5000000000000001
 31
0.0
  0
LINE
  5
F4756
  8
VISIBLE
 10
-0.948845506669499
 20
-0.0500000000000009
 30
0.0
 11
-1.018845506669499
 21
-0.5
 31
0.0
  0
LINE
  5
F4757
  8
VISIBLE
 10
-1.508845506669499
 20
-0.0500000000000009
 30
0.0
 11
-1.578845506669499
 21
-0.5000000000000001
 31
0.0
  0
LINE
  5
F4758
  8
VISIBLE
 10
-0.5288455066694985
 20
-0.0500000000000007
 30
0.0
 11
-0.458845506669499
 21
-0.5
 31
0.0
  0
LINE
  5
F4759
  8
VISIBLE
 10
-0.8088455066694985
 20
-0.0500000000000007
 30
0.0
 11
-0.738845506669499
 21
-0.5
 31
0.0
  0
LINE
  5
F475A
  8
VISIBLE
 10
-1.088845506669498
 20
-0.0500000000000007
 30
0.0
 11
-1.018845506669499
 21
-0.5
 31
0.0
  0
LINE
  5
F475B
  8
VISIBLE
 10
-1.368845506669498
 20
-0.0500000000000007
 30
0.0
 11
-1.298845506669499
 21
-0.5000000000000001
 31
0.0
  0
LINE
  5
F475C
  8
VISIBLE
 10
-1.648845506669498
 20
-0.0500000000000007
 30
0.0
 11
-1.578845506669499
 21
-0.5000000000000001
 31
0.0
  0
LINE
  5
F475D
  8
VISIBLE
 10
-1.528845506669499
 20
0.0000000000000001
 30
0.0
 11
-1.578845506669499
 21
-0.2720422390115074
 31
0.0
  0
LINE
  5
F475E
  8
VISIBLE
 10
-1.248845506669499
 20
0.0000000000000001
 30
0.0
 11
-1.298845506669499
 21
-0.2720422390115074
 31
0.0
  0
LINE
  5
F475F
  8
VISIBLE
 10
-0.9688455066694985
 20
0.0000000000000001
 30
0.0
 11
-1.018845506669499
 21
-0.2720422390115074
 31
0.0
  0
LINE
  5
F4760
  8
VISIBLE
 10
-0.6888455066694985
 20
0.0000000000000001
 30
0.0
 11
-0.7388455066694987
 21
-0.2720422390115074
 31
0.0
  0
LINE
  5
F4761
  8
VISIBLE
 10
-0.4088455066694986
 20
0.0000000000000001
 30
0.0
 11
-0.4588455066694987
 21
-0.2720422390115074
 31
0.0
  0
LINE
  5
F4762
  8
VISIBLE
 10
-1.508845506669498
 20
-0.0500000000000007
 30
0.0
 11
-1.438845506669499
 21
-0.5000000000000001
 31
0.0
  0
LINE
  5
F4763
  8
VISIBLE
 10
-1.228845506669499
 20
-0.0500000000000007
 30
0.0
 11
-1.158845506669499
 21
-0.5
 31
0.0
  0
LINE
  5
F4764
  8
VISIBLE
 10
-0.3888455066694985
 20
-0.0500000000000007
 30
0.0
 11
-0.318845506669499
 21
-0.5
 31
0.0
  0
LINE
  5
F4765
  8
VISIBLE
 10
-0.9488455066694985
 20
-0.0500000000000007
 30
0.0
 11
-0.878845506669499
 21
-0.5
 31
0.0
  0
LINE
  5
F4766
  8
VISIBLE
 10
-0.6688455066694985
 20
-0.0500000000000007
 30
0.0
 11
-0.598845506669499
 21
-0.5
 31
0.0
  0
LINE
  5
F4767
  8
VISIBLE
 10
-1.648845506669498
 20
0.0500000000000007
 30
0.0
 11
-1.578845506669499
 21
0.5000000000000001
 31
0.0
  0
LINE
  5
F4768
  8
VISIBLE
 10
-1.368845506669498
 20
0.0500000000000007
 30
0.0
 11
-1.298845506669499
 21
0.5000000000000001
 31
0.0
  0
LINE
  5
F4769
  8
VISIBLE
 10
-1.088845506669498
 20
0.0500000000000007
 30
0.0
 11
-1.018845506669499
 21
0.5
 31
0.0
  0
LINE
  5
F476A
  8
VISIBLE
 10
-0.8088455066694985
 20
0.0500000000000007
 30
0.0
 11
-0.738845506669499
 21
0.5
 31
0.0
  0
LINE
  5
F476B
  8
VISIBLE
 10
-0.5288455066694985
 20
0.0500000000000007
 30
0.0
 11
-0.458845506669499
 21
0.5
 31
0.0
  0
LINE
  5
F476C
  8
VISIBLE
 10
0.4999999999999999
 20
0.5000000000000001
 30
0.0
 11
-0.2488455066694987
 21
0.5
 31
0.0
  0
LINE
  5
F476D
  8
VISIBLE
 10
0.5
 20
0.5000000000000001
 30
0.0
 11
0.5000000000000001
 21
-0.5
 31
0.0
  0
LINE
  5
F476E
  8
VISIBLE
 10
0.5000000000000002
 20
-0.5
 30
0.0
 11
-0.2488455066694985
 21
-0.5000000000000001
 31
0.0
  0
LINE
  5
F476F
  8
VISIBLE
 10
0.5
 20
0.2250000000000001
 30
0.0
 11
0.3749999999999999
 21
0.2250000000000001
 31
0.0
  0
LINE
  5
F4770
  8
VISIBLE
 10
-0.2488455066694989
 20
0.5
 30
0.0
 11
-0.2488455066694986
 21
-0.5000000000000001
 31
0.0
  0
LINE
  5
F4771
  8
VISIBLE
 10
0.5
 20
0.2250000000000001
 30
0.0
 11
0.5
 21
-0.2249999999999999
 31
0.0
  0
LINE
  5
F4772
  8
VISIBLE
 10
0.5000000000000001
 20
-0.2249999999999999
 30
0.0
 11
0.3750000000000001
 21
-0.2249999999999999
 31
0.0
  0
LINE
  5
F4773
  8
VISIBLE
 10
0.3749999999999999
 20
0.069
 30
0.0
 11
-0.0000000000000001
 21
0.0689999999999999
 31
0.0
  0
LINE
  5
F4774
  8
VISIBLE
 10
0.3749999999999999
 20
0.2250000000000001
 30
0.0
 11
0.3750000000000001
 21
-0.2249999999999999
 31
0.0
  0
LINE
  5
F4775
  8
VISIBLE
 10
0.3749999999999999
 20
0.069
 30
0.0
 11
0.3749999999999999
 21
-0.069
 31
0.0
  0
LINE
  5
F4776
  8
VISIBLE
 10
0.3749999999999999
 20
-0.069
 30
0.0
 11
0.0
 21
-0.0690000000000001
 31
0.0
  0
LINE
  5
F4777
  8
VISIBLE
 10
0.2199999999999999
 20
0.1565
 30
0.0
 11
0.1106249999999999
 21
0.1564999999999999
 31
0.0
  0
LINE
  5
F4778
  8
VISIBLE
 10
-0.0000000000000001
 20
0.0689999999999999
 30
0.0
 11
0.0
 21
-0.0690000000000001
 31
0.0
  0
LINE
  5
F4779
  8
VISIBLE
 10
-0.6688455066694989
 20
0.0500000000000009
 30
0.0
 11
-0.7388455066694989
 21
0.5
 31
0.0
  0
LINE
  5
F477A
  8
VISIBLE
 10
-0.948845506669499
 20
0.0500000000000009
 30
0.0
 11
-1.018845506669499
 21
0.5
 31
0.0
  0
LINE
  5
F477B
  8
VISIBLE
 10
-0.3888455066694987
 20
0.0500000000000009
 30
0.0
 11
-0.4588455066694988
 21
0.5
 31
0.0
  0
LINE
  5
F477C
  8
VISIBLE
 10
-1.228845506669499
 20
0.0500000000000009
 30
0.0
 11
-1.298845506669499
 21
0.5000000000000001
 31
0.0
  0
LINE
  5
F477D
  8
VISIBLE
 10
-1.508845506669499
 20
0.0500000000000009
 30
0.0
 11
-1.578845506669499
 21
0.5000000000000001
 31
0.0
  0
LINE
  5
F477E
  8
VISIBLE
 10
0.2199999999999999
 20
0.1565
 30
0.0
 11
0.22
 21
-0.156
 31
0.0
  0
LINE
  5
F477F
  8
VISIBLE
 10
0.1106249999999999
 20
0.1564999999999999
 30
0.0
 11
0.110625
 21
-0.1560000000000001
 31
0.0
  0
LINE
  5
F4780
  8
VISIBLE
 10
0.22
 20
-0.156
 30
0.0
 11
0.110625
 21
-0.1560000000000001
 31
0.0
  0
LINE
  5
F4781
  8
VISIBLE
 10
-0.3688455066694986
 20
0.0000000000000002
 30
0.0
 11
-0.3188455066694987
 21
-0.2720422390115073
 31
0.0
  0
LINE
  5
F4782
  8
VISIBLE
 10
-1.108845506669499
 20
0.0000000000000001
 30
0.0
 11
-1.158845506669499
 21
-0.2720422390115074
 31
0.0
  0
LINE
  5
F4783
  8
VISIBLE
 10
-1.388845506669499
 20
0.0000000000000001
 30
0.0
 11
-1.438845506669499
 21
-0.2720422390115074
 31
0.0
  0
LINE
  5
F4784
  8
VISIBLE
 10
-0.5488455066694986
 20
0.0000000000000001
 30
0.0
 11
-0.5988455066694987
 21
-0.2720422390115074
 31
0.0
  0
LINE
  5
F4785
  8
VISIBLE
 10
-0.8288455066694985
 20
0.0000000000000001
 30
0.0
 11
-0.8788455066694987
 21
-0.2720422390115074
 31
0.0
  0
LINE
  5
F4786
  8
VISIBLE
 10
-0.3688455066694986
 20
-0.0000000000000002
 30
0.0
 11
-0.3188455066694987
 21
0.2720422390115073
 31
0.0
  0
LINE
  5
F4787
  8
VISIBLE
 10
-1.208845506669499
 20
-0.0000000000000002
 30
0.0
 11
-1.158845506669499
 21
0.2720422390115073
 31
0.0
  0
LINE
  5
F4788
  8
VISIBLE
 10
-1.488845506669499
 20
-0.0000000000000002
 30
0.0
 11
-1.438845506669499
 21
0.2720422390115073
 31
0.0
  0
LINE
  5
F4789
  8
VISIBLE
 10
-0.6488455066694986
 20
-0.0000000000000002
 30
0.0
 11
-0.5988455066694988
 21
0.2720422390115073
 31
0.0
  0
LINE
  5
F478A
  8
VISIBLE
 10
-0.9288455066694986
 20
-0.0000000000000002
 30
0.0
 11
-0.8788455066694987
 21
0.2720422390115073
 31
0.0
  0
LINE
  5
F478B
  8
VISIBLE
 10
-1.844738747859119
 20
-0.0767090667669815
 30
0.0
 11
-1.648845506669498
 21
-0.0500000000000007
 31
0.0
  0
LINE
  5
F478C
  8
VISIBLE
 10
-0.2488455066694987
 20
-0.0500000000000009
 30
0.0
 11
-0.3188455066694988
 21
-0.5
 31
0.0
  0
LINE
  5
F478D
  8
VISIBLE
 10
-0.5288455066694988
 20
-0.0500000000000009
 30
0.0
 11
-0.5988455066694989
 21
-0.5
 31
0.0
  0
LINE
  5
F478E
  8
VISIBLE
 10
-0.8088455066694987
 20
-0.0500000000000009
 30
0.0
 11
-0.8788455066694987
 21
-0.5
 31
0.0
  0
LINE
  5
F478F
  8
VISIBLE
 10
-1.088845506669499
 20
-0.0500000000000009
 30
0.0
 11
-1.158845506669499
 21
-0.5
 31
0.0
  0
LINE
  5
F4790
  8
VISIBLE
 10
-1.368845506669499
 20
-0.0500000000000009
 30
0.0
 11
-1.438845506669499
 21
-0.5000000000000001
 31
0.0
  0
LINE
  5
F4791
  8
VISIBLE
 10
-0.2688455066694986
 20
0.0000000000000001
 30
0.0
 11
-0.3188455066694987
 21
-0.2720422390115074
 31
0.0
  0
LINE
  5
F4792
  8
VISIBLE
 10
-0.9288455066694986
 20
0.0000000000000002
 30
0.0
 11
-0.8788455066694987
 21
-0.2720422390115073
 31
0.0
  0
LINE
  5
F4793
  8
VISIBLE
 10
-0.6488455066694986
 20
0.0000000000000002
 30
0.0
 11
-0.5988455066694988
 21
-0.2720422390115073
 31
0.0
  0
LINE
  5
F4794
  8
VISIBLE
 10
-1.488845506669499
 20
0.0000000000000002
 30
0.0
 11
-1.438845506669499
 21
-0.2720422390115073
 31
0.0
  0
LINE
  5
F4795
  8
VISIBLE
 10
-1.208845506669499
 20
0.0000000000000002
 30
0.0
 11
-1.158845506669499
 21
-0.2720422390115073
 31
0.0
  0
ENDSEC
  0
EOF
