  0
SECTION
  2
HEADER
  9
$ACADVER
  1
AC1009
  9
$DWGCODEPAGE
  3
undefined
  9
$INSBASE
 10
0.0
 20
0.0
 30
0.0
  9
$EXTMIN
 10
1.000000000000000E+20
 20
1.000000000000000E+20
 30
1.000000000000000E+20
  9
$EXTMAX
 10
-1.000000000000000E+20
 20
-1.000000000000000E+20
 30
-1.000000000000000E+20
  9
$LIMMIN
 10
0.0
 20
0.0
  9
$LIMMAX
 10
12.0
 20
9.0
  9
$ORTHOMODE
 70
     0
  9
$REGENMODE
 70
     1
  9
$FILLMODE
 70
     1
  9
$QTEXTMODE
 70
     0
  9
$MIRRTEXT
 70
     1
  9
$DRAGMODE
 70
     2
  9
$LTSCALE
 40
1.0
  9
$OSMODE
 70
    37
  9
$ATTMODE
 70
     1
  9
$TEXTSIZE
 40
0.2
  9
$TRACEWID
 40
0.05
  9
$TEXTSTYLE
  7
STANDARD
  9
$CLAYER
  8
0
  9
$CELTYPE
  6
BYLAYER
  9
$CECOLOR
 62
   256
  9
$DIMSCALE
 40
1.0
  9
$DIMASZ
 40
0.18
  9
$DIMEXO
 40
0.0625
  9
$DIMDLI
 40
0.38
  9
$DIMRND
 40
0.0
  9
$DIMDLE
 40
0.0
  9
$DIMEXE
 40
0.18
  9
$DIMTP
 40
0.0
  9
$DIMTM
 40
0.0
  9
$DIMTXT
 40
0.18
  9
$DIMCEN
 40
0.09
  9
$DIMTSZ
 40
0.0
  9
$DIMTOL
 70
     0
  9
$DIMLIM
 70
     0
  9
$DIMTIH
 70
     1
  9
$DIMTOH
 70
     1
  9
$DIMSE1
 70
     0
  9
$DIMSE2
 70
     0
  9
$DIMTAD
 70
     0
  9
$DIMZIN
 70
     0
  9
$DIMBLK
  1

  9
$DIMASO
 70
     1
  9
$DIMSHO
 70
     1
  9
$DIMPOST
  1

  9
$DIMAPOST
  1

  9
$DIMALT
 70
     0
  9
$DIMALTD
 70
     2
  9
$DIMALTF
 40
25.4
  9
$DIMLFAC
 40
1.0
  9
$DIMTOFL
 70
     0
  9
$DIMTVP
 40
0.0
  9
$DIMTIX
 70
     0
  9
$DIMSOXD
 70
     0
  9
$DIMSAH
 70
     0
  9
$DIMBLK1
  1

  9
$DIMBLK2
  1

  9
$DIMSTYLE
  2
STANDARD
  9
$DIMCLRD
 70
     0
  9
$DIMCLRE
 70
     0
  9
$DIMCLRT
 70
     0
  9
$DIMTFAC
 40
1.0
  9
$DIMGAP
 40
0.09
  9
$LUNITS
 70
     2
  9
$LUPREC
 70
     4
  9
$SKETCHINC
 40
0.1
  9
$FILLETRAD
 40
0.5
  9
$AUNITS
 70
     0
  9
$AUPREC
 70
     0
  9
$MENU
  1
.
  9
$ELEVATION
 40
0.0
  9
$PELEVATION
 40
0.0
  9
$THICKNESS
 40
0.0
  9
$LIMCHECK
 70
     0
  9
$CHAMFERA
 40
0.0
  9
$CHAMFERB
 40
0.0
  9
$SKPOLY
 70
     0
  9
$TDCREATE
 40
2457185.869606481
  9
$TDUPDATE
 40
2457185.869606481
  9
$TDINDWG
 40
0.0000000116
  9
$TDUSRTIMER
 40
0.0000000116
  9
$USRTIMER
 70
     1
  9
$ANGBASE
 50
0.0
  9
$ANGDIR
 70
     0
  9
$PDMODE
 70
     0
  9
$PDSIZE
 40
0.0
  9
$PLINEWID
 40
0.0
  9
$COORDS
 70
     1
  9
$SPLFRAME
 70
     0
  9
$SPLINETYPE
 70
     6
  9
$SPLINESEGS
 70
     8
  9
$ATTDIA
 70
     0
  9
$ATTREQ
 70
     1
  9
$HANDLING
 70
     1
  9
$HANDSEED
  5
100000C7
  9
$SURFTAB1
 70
     6
  9
$SURFTAB2
 70
     6
  9
$SURFTYPE
 70
     6
  9
$SURFU
 70
     6
  9
$SURFV
 70
     6
  9
$UCSNAME
  2

  9
$UCSORG
 10
0.0
 20
0.0
 30
0.0
  9
$UCSXDIR
 10
1.0
 20
0.0
 30
0.0
  9
$UCSYDIR
 10
0.0
 20
1.0
 30
0.0
  9
$PUCSNAME
  2

  9
$PUCSORG
 10
0.0
 20
0.0
 30
0.0
  9
$PUCSXDIR
 10
1.0
 20
0.0
 30
0.0
  9
$PUCSYDIR
 10
0.0
 20
1.0
 30
0.0
  9
$USERI1
 70
     0
  9
$USERI2
 70
     0
  9
$USERI3
 70
     0
  9
$USERI4
 70
     0
  9
$USERI5
 70
     0
  9
$USERR1
 40
0.0
  9
$USERR2
 40
0.0
  9
$USERR3
 40
0.0
  9
$USERR4
 40
0.0
  9
$USERR5
 40
0.0
  9
$WORLDVIEW
 70
     1
  9
$SHADEDGE
 70
     3
  9
$SHADEDIF
 70
    70
  9
$TILEMODE
 70
     1
  9
$MAXACTVP
 70
    64
  9
$PLIMCHECK
 70
     0
  9
$PEXTMIN
 10
1.000000000000000E+20
 20
1.000000000000000E+20
 30
1.000000000000000E+20
  9
$PEXTMAX
 10
-1.000000000000000E+20
 20
-1.000000000000000E+20
 30
-1.000000000000000E+20
  9
$PLIMMIN
 10
0.0
 20
0.0
  9
$PLIMMAX
 10
12.0
 20
9.0
  9
$UNITMODE
 70
     0
  9
$VISRETAIN
 70
     1
  9
$PLINEGEN
 70
     0
  9
$PSLTSCALE
 70
     1
  0
ENDSEC
  0
SECTION
  2
TABLES
  0
TABLE
  2
VPORT
 70
     1
  0
VPORT
  2
*ACTIVE
 70
     0
 10
0.0
 20
0.0
 11
1.0
 21
1.0
 12
10.42990654205607
 22
4.5
 13
0.0
 23
0.0
 14
0.5
 24
0.5
 15
0.5
 25
0.5
 16
0.0
 26
0.0
 36
1.0
 17
0.0
 27
0.0
 37
0.0
 40
9.0
 41
1.972972972850329
 42
50.0
 43
0.0
 44
0.0
 50
0.0
 51
0.0
 71
     0
 72
   100
 73
     1
 74
     3
 75
     0
 76
     0
 77
     0
 78
     0
  0
ENDTAB
  0
TABLE
  2
LTYPE
 70
     5
  0
LTYPE
  2
CONTINUOUS
 70
     0
  3
Solid line
 72
    65
 73
     0
 40
0.0
  0
LTYPE
  2
HIDDEN
 70
     0
  3
Hidden line ____ ____ ____ ____ 
 72
    83
 73
     2
 40
0.125
 49
0.25
 49
-0.125
  0
LTYPE
  2
PHANTOM
 70
     0
  3
Phantom line ______  __  __  ______  __  __
 72
    83
 73
     6
 40
0.5
 49
0.625
 49
-0.125
 49
0.125
 49
-0.125
 49
0.125
 49
-0.125
  0
LTYPE
  2
CENTER
 70
     0
  3
Center line ____ _ ____ _ ____ _
 72
    83
 73
     4
 40
0.5
 49
0.625
 49
-0.125
 49
0.125
 49
-0.125
  0
LTYPE
  2
DASHED
 70
     0
  3
Dashed line __ __ __ __
 72
    83
 73
     2
 40
0.25
 49
0.5
 49
-0.25
  0
ENDTAB
  0
TABLE
  2
LAYER
 70
     5
  0
LAYER
  2
0
 70
     0
 62
     7
  6
CONTINUOUS
  0
LAYER
  2
HIDDEN
 70
     0
 62
    -7
  6
HIDDEN
  0
LAYER
  2
VISIBLE
 70
     0
 62
     7
  6
CONTINUOUS
  0
LAYER
  2
TANGENT_LINES
 70
     0
 62
     7
  6
CONTINUOUS
  0
LAYER
  2
INVISIBLE_LINES
 70
     0
 62
    -7
  6
CONTINUOUS
  0
ENDTAB
  0
TABLE
  2
STYLE
 70
     2
  0
STYLE
  2
STANDARD
 70
     0
 40
0.0
 41
1.0
 50
0.0
 71
     0
 42
0.2
  3
txt
  4

  0
STYLE
  2
ODATTFSTYLE
 70
     0
 40
0.0
 41
1.0
 50
0.0
 71
     0
 42
0.2
  3
Verdana.ttf
  4

  0
ENDTAB
  0
TABLE
  2
VIEW
 70
     0
  0
ENDTAB
  0
TABLE
  2
UCS
 70
     0
  0
ENDTAB
  0
TABLE
  2
APPID
 70
     1
  0
APPID
  2
ACAD
 70
     0
  0
ENDTAB
  0
TABLE
  2
DIMSTYLE
 70
     1
  0
DIMSTYLE
  2
STANDARD
 70
     0
  3

  4

  5

  6

  7

 40
1.0
 41
0.18
 42
0.0625
 43
0.38
 44
0.18
 45
0.0
 46
0.0
 47
0.0
 48
0.0
140
0.18
141
0.09
142
0.0
143
25.4
144
1.0
145
0.0
146
1.0
147
0.09
 71
     0
 72
     0
 73
     1
 74
     1
 75
     0
 76
     0
 77
     0
 78
     0
170
     0
171
     2
172
     0
173
     0
174
     0
175
     0
176
     0
177
     0
178
     0
  0
ENDTAB
  0
ENDSEC
  0
SECTION
  2
BLOCKS
  0
BLOCK
  8
0
  2
$MODEL_SPACE
 70
     0
 10
0.0
 20
0.0
 30
0.0
  3
$MODEL_SPACE
  1

  0
ENDBLK
  5
21
  8
0
  0
BLOCK
 67
     1
  8
0
  2
$PAPER_SPACE
 70
     0
 10
0.0
 20
0.0
 30
0.0
  3
$PAPER_SPACE
  1

  0
ENDBLK
  5
1D
 67
     1
  8
0
  0
ENDSEC
  0
SECTION
  2
ENTITIES
  0
LINE
  5
F4721
  8
VISIBLE
 10
0.4549211041730215
 20
4.661117793068174
 30
0.0
 11
0.5929211041730215
 21
4.661117793068174
 31
0.0
  0
LINE
  5
F4722
  8
VISIBLE
 10
5.898255119970692
 20
1.689866000000002
 30
0.0
 11
5.648255119970692
 21
1.689866000000002
 31
0.0
  0
LINE
  5
F4723
  8
VISIBLE
 10
5.400255119970695
 20
-0.0000000000000005
 30
0.0
 11
5.400255119970695
 21
0.1249999999999995
 31
0.0
  0
LINE
  5
F4724
  8
VISIBLE
 10
-0.142744880029306
 20
0.2449999999999998
 30
0.0
 11
-0.455244880029306
 21
0.2449999999999997
 31
0.0
  0
LINE
  5
F4725
  8
VISIBLE
 10
4.800255119970696
 20
0.0
 30
0.0
 11
4.800255119970696
 21
0.1249999999999995
 31
0.0
  0
LINE
  5
F4726
  8
VISIBLE
 10
5.898255119970694
 20
1.827866000000002
 30
0.0
 11
5.898255119970694
 21
1.689866000000002
 31
0.0
  0
LINE
  5
F4727
  8
VISIBLE
 10
0.4549211041730216
 20
4.911117793068173
 30
0.0
 11
0.4549211041730216
 21
4.661117793068174
 31
0.0
  0
LINE
  5
F4728
  8
VISIBLE
 10
-0.142744880029306
 20
0.3543749999999998
 30
0.0
 11
-0.142744880029306
 21
0.2449999999999998
 31
0.0
  0
LINE
  5
F4729
  8
VISIBLE
 10
5.648255119970693
 20
1.827866000000002
 30
0.0
 11
5.648255119970693
 21
1.689866000000002
 31
0.0
  0
LINE
  5
F472A
  8
VISIBLE
 10
5.031755119970695
 20
0.125000000000001
 30
0.0
 11
5.031755119970695
 21
0.3749999999999998
 31
0.0
  0
LINE
  5
F472B
  8
VISIBLE
 10
0.5929211041730216
 20
4.911117793068173
 30
0.0
 11
0.5929211041730216
 21
4.661117793068174
 31
0.0
  0
LINE
  5
F472C
  8
VISIBLE
 10
-0.455244880029306
 20
0.3543749999999998
 30
0.0
 11
-0.455244880029306
 21
0.2449999999999997
 31
0.0
  0
LINE
  5
F472D
  8
VISIBLE
 10
2.244755119970695
 20
0.3543749999999998
 30
0.0
 11
2.244755119970695
 21
0.2449999999999997
 31
0.0
  0
LINE
  5
F472E
  8
VISIBLE
 10
-0.3170788958269786
 20
5.036117793068173
 30
0.0
 11
1.364921104173022
 21
5.036117793068173
 31
0.0
  0
CIRCLE
  5
F472F
  8
VISIBLE
 10
1.644744880029306
 20
1.874999999999998
 30
0.0
 40
0.0695
210
0.0
220
0.0
230
-1.0
  0
LINE
  5
F4730
  8
VISIBLE
 10
-2.889996407396212
 20
3.299999999999999
 30
0.0
 11
-1.344405729459392
 21
2.507965817604629
 31
0.0
  0
LINE
  5
F4731
  8
VISIBLE
 10
-0.3170788958269786
 20
5.036117793068173
 30
0.0
 11
-0.3170788958269785
 21
4.911117793068173
 31
0.0
  0
LINE
  5
F4732
  8
VISIBLE
 10
2.557255119970695
 20
0.3543750000000005
 30
0.0
 11
2.244755119970695
 21
0.3543750000000004
 31
0.0
  0
CIRCLE
  5
F4733
  8
VISIBLE
 10
1.644744880029306
 20
1.444999999999998
 30
0.0
 40
0.0695
210
0.0
220
0.0
230
-1.0
  0
LINE
  5
F4734
  8
VISIBLE
 10
1.978478693714003
 20
5.036117793068173
 30
0.0
 11
3.322720846760233
 21
2.507966
 31
0.0
  0
LINE
  5
F4735
  8
VISIBLE
 10
1.364921104173022
 20
5.036117793068173
 30
0.0
 11
1.364921104173022
 21
4.911117793068174
 31
0.0
  0
LINE
  5
F4736
  8
VISIBLE
 10
-3.596744880029307
 20
3.299999999999999
 30
0.0
 11
-2.889996407396212
 21
3.299999999999999
 31
0.0
  0
LINE
  5
F4737
  8
VISIBLE
 10
-1.344405729459392
 20
2.507965817604629
 30
0.0
 11
-0.5970788958269782
 21
2.507965817604629
 31
0.0
  0
LINE
  5
F4738
  8
VISIBLE
 10
5.400255119970695
 20
0.1249999999999995
 30
0.0
 11
4.800255119970696
 21
0.1249999999999995
 31
0.0
  0
LINE
  5
F4739
  8
VISIBLE
 10
5.898255119970693
 20
1.827866000000002
 30
0.0
 11
5.648255119970692
 21
1.827866000000002
 31
0.0
  0
LINE
  5
F473A
  8
VISIBLE
 10
0.4549211041730216
 20
4.911117793068173
 30
0.0
 11
0.5929211041730216
 21
4.911117793068173
 31
0.0
  0
CIRCLE
  5
F473B
  8
VISIBLE
 10
2.149744880029306
 20
1.874999999999998
 30
0.0
 40
0.0695
210
0.0
220
0.0
230
-1.0
  0
LINE
  5
F473C
  8
VISIBLE
 10
-0.3170788958269786
 20
4.911117793068173
 30
0.0
 11
1.364921104173022
 21
4.911117793068174
 31
0.0
  0
LINE
  5
F473D
  8
VISIBLE
 10
2.469755119970695
 20
0.3750000000000004
 30
0.0
 11
2.331755119970695
 21
0.3750000000000004
 31
0.0
  0
ARC
  5
F473E
  8
VISIBLE
 10
-6.02880880446802
 20
2.524050006318961
 30
0.0
 40
2.584356466531351
 50
293.5200033869386
 51
340.2322673010356
  0
LINE
  5
F473F
  8
VISIBLE
 10
2.469755119970695
 20
0.1249999999999996
 30
0.0
 11
2.469755119970695
 21
0.3749999999999998
 31
0.0
  0
LINE
  5
F4740
  8
VISIBLE
 10
-0.3170788958269786
 20
5.036117793068173
 30
0.0
 11
-0.5970788958269786
 21
5.036117793068173
 31
0.0
  0
LINE
  5
F4741
  8
VISIBLE
 10
4.944755119970695
 20
0.3543749999999998
 30
0.0
 11
4.944755119970695
 21
0.2449999999999997
 31
0.0
  0
LINE
  5
F4742
  8
VISIBLE
 10
-4.997471702786385
 20
0.1543997939885982
 30
0.0
 11
-4.997471702786385
 21
-0.0000000000000014
 31
0.0
  0
CIRCLE
  5
F4743
  8
VISIBLE
 10
2.149744880029306
 20
1.444999999999998
 30
0.0
 40
0.0695
210
0.0
220
0.0
230
-1.0
  0
LINE
  5
F4744
  8
VISIBLE
 10
-0.5970788958269782
 20
2.507965817604629
 30
0.0
 11
-0.5970788958269786
 21
5.036117793068173
 31
0.0
  0
LINE
  5
F4745
  8
VISIBLE
 10
2.557255119970695
 20
0.3543749999999998
 30
0.0
 11
2.557255119970695
 21
0.2449999999999998
 31
0.0
  0
LINE
  5
F4746
  8
VISIBLE
 10
5.898255119970694
 20
0.0
 30
0.0
 11
-3.596744880029306
 21
0.0
 31
0.0
  0
LINE
  5
F4747
  8
VISIBLE
 10
5.898255119970693
 20
2.507966000000002
 30
0.0
 11
5.898255119970694
 21
0.0000000000000003
 31
0.0
  0
LINE
  5
F4748
  8
VISIBLE
 10
-3.596744880029307
 20
1.649999999999999
 30
0.0
 11
-3.596744880029307
 21
3.299999999999999
 31
0.0
  0
CIRCLE
  5
F4749
  8
VISIBLE
 10
-3.199264565068677
 20
3.039956624864592
 30
0.0
 40
0.1574803149606299
  0
LINE
  5
F474A
  8
VISIBLE
 10
3.322720846760232
 20
2.507966000000001
 30
0.0
 11
5.898255119970693
 21
2.507966000000002
 31
0.0
  0
CIRCLE
  5
F474B
  8
VISIBLE
 10
-3.199264565068678
 20
1.239956624864591
 30
0.0
 40
0.1574803149606299
  0
CIRCLE
  5
F474C
  8
VISIBLE
 10
-3.199264565068678
 20
2.139956624864591
 30
0.0
 40
0.1574803149606299
  0
LINE
  5
F474D
  8
VISIBLE
 10
0.000255119970694
 20
0.1249999999999995
 30
0.0
 11
-0.5997448800293059
 21
0.1249999999999995
 31
0.0
  0
LINE
  5
F474E
  8
VISIBLE
 10
0.0002551199706941
 20
0.0
 30
0.0
 11
-0.5997448800293059
 21
0.0
 31
0.0
  0
LINE
  5
F474F
  8
VISIBLE
 10
-0.5997448800293059
 20
0.0
 30
0.0
 11
-0.5997448800293059
 21
0.1249999999999995
 31
0.0
  0
LINE
  5
F4750
  8
VISIBLE
 10
0.0002551199706941
 20
-0.0000000000000005
 30
0.0
 11
0.0002551199706941
 21
0.1249999999999995
 31
0.0
  0
LINE
  5
F4751
  8
VISIBLE
 10
-0.230244880029306
 20
0.3749999999999998
 30
0.0
 11
-0.3682448800293061
 21
0.3749999999999998
 31
0.0
  0
LINE
  5
F4752
  8
VISIBLE
 10
-0.230244880029306
 20
0.1249999999999995
 30
0.0
 11
-0.3682448800293061
 21
0.1249999999999995
 31
0.0
  0
LINE
  5
F4753
  8
VISIBLE
 10
5.169755119970695
 20
0.3749999999999998
 30
0.0
 11
5.031755119970695
 21
0.3749999999999998
 31
0.0
  0
LINE
  5
F4754
  8
VISIBLE
 10
-0.5970788958269786
 20
5.036117793068173
 30
0.0
 11
1.978478693714004
 21
5.036117793068173
 31
0.0
  0
LINE
  5
F4755
  8
VISIBLE
 10
2.557255119970695
 20
0.2450000000000004
 30
0.0
 11
2.244755119970695
 21
0.2450000000000003
 31
0.0
  0
LINE
  5
F4756
  8
VISIBLE
 10
-4.997471702786385
 20
0.0
 30
0.0
 11
-3.596744880029306
 21
0.0
 31
0.0
  0
LINE
  5
F4757
  8
VISIBLE
 10
-0.3682448800293061
 20
0.125000000000001
 30
0.0
 11
-0.3682448800293061
 21
0.3749999999999998
 31
0.0
  0
LINE
  5
F4758
  8
VISIBLE
 10
-0.142744880029306
 20
0.3543749999999998
 30
0.0
 11
-0.455244880029306
 21
0.3543749999999998
 31
0.0
  0
LINE
  5
F4759
  8
VISIBLE
 10
-0.2302448800293059
 20
0.1249999999999996
 30
0.0
 11
-0.2302448800293059
 21
0.3749999999999998
 31
0.0
  0
LINE
  5
F475A
  8
VISIBLE
 10
2.700255119970695
 20
-0.0000000000000005
 30
0.0
 11
2.700255119970695
 21
0.1249999999999995
 31
0.0
  0
LINE
  5
F475B
  8
VISIBLE
 10
0.3679211041730215
 20
4.73609267491994
 30
0.0
 11
0.6799211041730215
 21
4.73609267491994
 31
0.0
  0
LINE
  5
F475C
  8
VISIBLE
 10
5.257255119970695
 20
0.2450000000000011
 30
0.0
 11
4.944755119970695
 21
0.245000000000001
 31
0.0
  0
LINE
  5
F475D
  8
VISIBLE
 10
5.669255119970693
 20
1.602866000000002
 30
0.0
 11
5.778255119970693
 21
1.602866000000002
 31
0.0
  0
LINE
  5
F475E
  8
VISIBLE
 10
2.700255119970695
 20
0.1249999999999995
 30
0.0
 11
2.100255119970695
 21
0.1249999999999995
 31
0.0
  0
LINE
  5
F475F
  8
VISIBLE
 10
0.3679211041730215
 20
4.84509267491994
 30
0.0
 11
0.6799211041730215
 21
4.84509267491994
 31
0.0
  0
LINE
  5
F4760
  8
VISIBLE
 10
5.169755119970695
 20
0.1249999999999996
 30
0.0
 11
5.169755119970695
 21
0.3749999999999998
 31
0.0
  0
LINE
  5
F4761
  8
VISIBLE
 10
5.669255119970693
 20
1.914866000000002
 30
0.0
 11
5.778255119970693
 21
1.914866000000002
 31
0.0
  0
LINE
  5
F4762
  8
VISIBLE
 10
2.331755119970695
 20
0.125000000000001
 30
0.0
 11
2.331755119970695
 21
0.3749999999999998
 31
0.0
  0
LINE
  5
F4763
  8
VISIBLE
 10
5.257255119970695
 20
0.3543750000000011
 30
0.0
 11
4.944755119970695
 21
0.3543750000000011
 31
0.0
  0
LINE
  5
F4764
  8
VISIBLE
 10
5.778255119970693
 20
1.914866000000002
 30
0.0
 11
5.778255119970693
 21
1.602866000000002
 31
0.0
  0
LINE
  5
F4765
  8
VISIBLE
 10
0.6799211041730215
 20
4.84509267491994
 30
0.0
 11
0.6799211041730215
 21
4.73609267491994
 31
0.0
  0
LINE
  5
F4766
  8
VISIBLE
 10
2.100255119970695
 20
0.0
 30
0.0
 11
2.100255119970695
 21
0.1249999999999995
 31
0.0
  0
LINE
  5
F4767
  8
VISIBLE
 10
5.669255119970693
 20
1.914866000000002
 30
0.0
 11
5.669255119970693
 21
1.602866000000002
 31
0.0
  0
LINE
  5
F4768
  8
VISIBLE
 10
5.257255119970695
 20
0.3543749999999998
 30
0.0
 11
5.257255119970695
 21
0.2449999999999998
 31
0.0
  0
LINE
  5
F4769
  8
VISIBLE
 10
0.3679211041730215
 20
4.84509267491994
 30
0.0
 11
0.3679211041730215
 21
4.73609267491994
 31
0.0
  0
ENDSEC
  0
EOF
